<svg width="319" height="321" xmlns="http://www.w3.org/2000/svg" xmlns:xlink="http://www.w3.org/1999/xlink" overflow="hidden"><defs><clipPath id="clip0"><rect x="0" y="0" width="319" height="321"/></clipPath></defs><g clip-path="url(#clip0)"><rect x="0" y="0" width="319" height="320.998" fill="#FFFFFF"/><path d="M4.50003 240.498 304.477 240.498" stroke="#000000" stroke-width="0.664842" stroke-linejoin="round" stroke-miterlimit="10" fill="none" fill-rule="evenodd"/><path d="M302 237.998 303.862 240.482 302 242.965 306.967 240.482 302 237.998Z" fill-rule="evenodd"/><text font-family="Book Antiqua,Book Antiqua_MSFontService,sans-serif" font-style="italic" font-weight="400" font-size="13" transform="matrix(1 0 0 0.999993 303.725 252)">x</text><path d="M80.5 316.474 80.5 16.4999" stroke="#000000" stroke-width="0.664842" stroke-linejoin="round" stroke-miterlimit="10" fill="none" fill-rule="evenodd"/><path d="M78 17.9668 79.9867 16.1042 81.9734 17.9668 79.9867 13 78 17.9668Z" fill-rule="evenodd"/><text font-family="Book Antiqua,Book Antiqua_MSFontService,sans-serif" font-style="italic" font-weight="400" font-size="13" transform="matrix(1 0 0 0.999993 18.8237 256)">O</text><text font-family="Tahoma,Tahoma_MSFontService,sans-serif" font-weight="400" font-size="13" transform="matrix(1 0 0 0.999993 29.4347 256)">(</text><text font-family="Book Antiqua,Book Antiqua_MSFontService,sans-serif" font-style="italic" font-weight="400" font-size="13" transform="matrix(1 0 0 0.999993 35.2742 256)">B</text><text font-family="Tahoma,Tahoma_MSFontService,sans-serif" font-weight="400" font-size="13" transform="matrix(1 0 0 0.999993 43.7163 256)">)</text><text font-family="Tahoma,Tahoma_MSFontService,sans-serif" font-weight="400" font-size="13" transform="matrix(1 0 0 0.999993 49.2888 256)">(</text><text font-family="Book Antiqua,Book Antiqua_MSFontService,sans-serif" font-style="italic" font-weight="400" font-size="13" transform="matrix(1 0 0 0.999993 55.6622 256)">A</text><text font-family="Times New Roman,Times New Roman_MSFontService,sans-serif" font-style="italic" font-weight="400" font-size="10" transform="matrix(1 0 0 0.999993 65.4724 252)">′</text><text font-family="Tahoma,Tahoma_MSFontService,sans-serif" font-weight="400" font-size="13" transform="matrix(1 0 0 0.999993 69.2163 256)">)</text><path d="M81.5 51.4997 81.5 240.477" stroke="#000000" stroke-width="2.65947" stroke-linejoin="round" stroke-miterlimit="10" fill="none" fill-rule="evenodd"/><path d="M80 66.9995 155.991 240.949" stroke="#7F7F7F" stroke-width="1.99463" stroke-linejoin="round" stroke-miterlimit="10" stroke-dasharray="7.97852 5.98389" fill="none" fill-rule="evenodd"/><path d="M80 88.9994 193.987 239.981" stroke="#7F7F7F" stroke-width="1.99463" stroke-linejoin="round" stroke-miterlimit="10" stroke-dasharray="7.97852 5.98389" fill="none" fill-rule="evenodd"/><text font-family="Book Antiqua,Book Antiqua_MSFontService,sans-serif" font-style="italic" font-weight="400" font-size="13" transform="matrix(1 0 0 0.999993 149.04 255)">B</text><text font-family="Book Antiqua,Book Antiqua_MSFontService,sans-serif" font-weight="400" font-size="10" transform="matrix(1 0 0 0.999993 156.948 256)">1</text><text font-family="Book Antiqua,Book Antiqua_MSFontService,sans-serif" font-style="italic" font-weight="400" font-size="13" transform="matrix(1 0 0 0.999993 186.813 255)">B</text><text font-family="Book Antiqua,Book Antiqua_MSFontService,sans-serif" font-weight="400" font-size="10" transform="matrix(1 0 0 0.999993 194.721 256)">2</text><path d="M80 126.999 230.983 239.986" stroke="#7F7F7F" stroke-width="1.99463" stroke-linejoin="round" stroke-miterlimit="10" stroke-dasharray="7.97852 5.98389" fill="none" fill-rule="evenodd"/><path d="M80 164.999 252.951 239.99" stroke="#7F7F7F" stroke-width="1.99463" stroke-linejoin="round" stroke-miterlimit="10" stroke-dasharray="7.97852 5.98389" fill="none" fill-rule="evenodd"/><text font-family="Book Antiqua,Book Antiqua_MSFontService,sans-serif" font-style="italic" font-weight="400" font-size="13" transform="matrix(1 0 0 0.999993 67.4625 15)">y</text><text font-family="Book Antiqua,Book Antiqua_MSFontService,sans-serif" font-style="italic" font-weight="400" font-size="13" transform="matrix(1 0 0 0.999993 65.4804 58)">A</text><text font-family="Book Antiqua,Book Antiqua_MSFontService,sans-serif" font-style="italic" font-weight="400" font-size="13" transform="matrix(1 0 0 0.999993 59.8078 73)">A</text><text font-family="Book Antiqua,Book Antiqua_MSFontService,sans-serif" font-weight="400" font-size="10" transform="matrix(1 0 0 0.999993 69.4846 74)">1</text><text font-family="Book Antiqua,Book Antiqua_MSFontService,sans-serif" font-style="italic" font-weight="400" font-size="13" transform="matrix(1 0 0 0.999993 60.2883 94)">A</text><text font-family="Book Antiqua,Book Antiqua_MSFontService,sans-serif" font-weight="400" font-size="10" transform="matrix(1 0 0 0.999993 69.9651 95)">2</text><text font-family="Book Antiqua,Book Antiqua_MSFontService,sans-serif" font-style="italic" font-weight="400" font-size="13" transform="matrix(1 0 0 0.999993 60.2883 132)">A</text><text font-family="Book Antiqua,Book Antiqua_MSFontService,sans-serif" font-weight="400" font-size="10" transform="matrix(1 0 0 0.999993 69.9651 133)">3</text><text font-family="Book Antiqua,Book Antiqua_MSFontService,sans-serif" font-style="italic" font-weight="400" font-size="13" transform="matrix(1 0 0 0.999993 86.202 152)">L</text><text font-family="Book Antiqua,Book Antiqua_MSFontService,sans-serif" font-style="italic" font-weight="400" font-size="13" transform="matrix(1 0 0 0.999993 60.2883 170)">A</text><text font-family="Book Antiqua,Book Antiqua_MSFontService,sans-serif" font-weight="400" font-size="10" transform="matrix(1 0 0 0.999993 69.9651 171)">4</text><path d="M80 238.998 268.979 238.998" stroke="#7F7F7F" stroke-width="1.99463" stroke-linejoin="round" stroke-miterlimit="10" stroke-dasharray="7.97852 5.98389" fill="none" fill-rule="evenodd"/><text font-family="Book Antiqua,Book Antiqua_MSFontService,sans-serif" font-style="italic" font-weight="400" font-size="13" transform="matrix(1 0 0 0.999993 224.711 253)">B</text><text font-family="Book Antiqua,Book Antiqua_MSFontService,sans-serif" font-weight="400" font-size="10" transform="matrix(1 0 0 0.999993 232.619 255)">3</text><text font-family="Book Antiqua,Book Antiqua_MSFontService,sans-serif" font-style="italic" font-weight="400" font-size="13" transform="matrix(1 0 0 0.999993 246.634 253)">B</text><text font-family="Book Antiqua,Book Antiqua_MSFontService,sans-serif" font-weight="400" font-size="10" transform="matrix(1 0 0 0.999993 254.542 255)">4</text><text font-family="Book Antiqua,Book Antiqua_MSFontService,sans-serif" font-style="italic" font-weight="400" font-size="13" transform="matrix(1 0 0 0.999993 263.051 254)">B</text><text font-family="Times New Roman,Times New Roman_MSFontService,sans-serif" font-style="italic" font-weight="400" font-size="10" transform="matrix(1 0 0 0.999993 271.359 250)">′</text><path d="M80.5 51.4997 81.4449 59.7294 82.3899 64.5137 83.3349 68.596 85.2249 75.2104 87.1149 81.0799 89.0049 86.2059 90.8948 90.9833 92.7848 95.4272 94.6749 99.6018 96.5649 103.562 98.4549 107.333 100.345 110.949 103.18 116.092 106.015 120.962 108.85 125.591 111.685 130.005 113.575 132.847 114.52 134.256 117.355 138.32 120.19 142.215 123.025 145.979 123.97 147.196 124.915 148.417 127.75 151.964 130.585 155.394 133.42 158.726 136.255 161.953 139.09 165.082 141.925 168.125 144.76 171.065 147.595 173.931 148.54 174.872 152.32 178.531 156.1 182.063 157.045 182.935 160.825 186.309 161.77 187.131 162.715 187.954 166.495 191.148 170.275 194.231 171.22 194.99 175 197.937 178.78 200.782 181.615 202.844 182.56 203.525 183.505 204.195 184.45 204.856 185.395 205.514 186.34 206.172 187.285 206.811 188.229 207.447 189.175 208.082 190.119 208.718 191.064 209.338 192.01 209.954 192.955 210.563 193.9 211.164 194.845 211.77 195.79 212.359 196.735 212.949 197.68 213.528 201.46 215.801 202.404 216.353 203.349 216.905 204.294 217.446 205.239 217.979 206.184 218.509 207.129 219.034 208.074 219.56 211.854 221.583 215.634 223.516 216.579 223.989 217.524 224.457 218.469 224.915 219.414 225.361 220.359 225.819 221.304 226.261 222.249 226.693 223.194 227.127 224.139 227.551 225.084 227.978 226.029 228.391 226.974 228.799 227.919 229.204 228.864 229.597 229.809 229.998 230.754 230.38 231.699 230.765 232.644 231.148 236.424 232.592 240.204 233.942 243.984 235.198 244.929 235.5 249.654 236.888 254.379 238.087 257.214 238.696 258.159 238.957 262.884 239.796 263.829 239.956 268.554 240.461 269.499 240.499" stroke="#0000FF" stroke-width="1.06379" stroke-linejoin="round" stroke-miterlimit="10" fill="none" fill-rule="evenodd"/></g></svg>